# xmcd
#
# Track frame offsets:
#	150
#	15906
#	32838
#	48048
#	63958
#	78039
#	96371
#	113621
#	127413
#	142483
#	160522
#	177491
#	193986
#	216374
#	234124
#	251521
#	263981
#	280301
#	295457
#	310282
#	327449
#
# Disc length: 4565 seconds
#
# Revision: 0
# Processed by: cddbd v1.5.2PL0 Copyright (c) Steve Scherf et al.
# Submitted via: dBpowerAMP V4.0
#
DISCID=3811d315
DTITLE=Various Artist - ERG Nu Country Traxx Vol. 215 CAN
DYEAR=2012
DGENRE=Country
TTITLE0=Kenny Chesney With Tim McGraw - Feel Like A Rock Star
TTITLE1=Keith Urban - For You
TTITLE2=Toby Keith - Beers Ago
TTITLE3=Terri Clark - Wrecking Ball
TTITLE4=Jason Blaine - Cool
TTITLE5=Taylor Swift - Eyes Open
TTITLE6=Clayton Bellamy - That Ain't Gonna Fly
TTITLE7=Dierks Bentley - 5-1-5-0
TTITLE8=George Canyon - Saddle Up
TTITLE9=Carolyn Dawn Johnson - Reach You
TTITLE10=Martina McBride ft. Pat Monahan of Train - Marry Me
TTITLE11=Kelly Clarkson - Mr. Know It All [Country Version]
TTITLE12=Paul Brandt - You
TTITLE13=Charlie Major - My Lover Now
TTITLE14=Pat Green - All Just to Get to You
TTITLE15=Scotty McCreery - Water Tower Town
TTITLE16=Dallas Smith - If It Gets You Where You Wanna Go
TTITLE17=Stellas, The - Riding In The Back Seat
TTITLE18=Duane Steele  - Gas And Time
TTITLE19=Eric Paslay - If The Fish Don't Bite
TTITLE20=Jon Pardi - Missin' You Crazy
EXTD=
EXTT0=
EXTT1=
EXTT2=
EXTT3=
EXTT4=
EXTT5=
EXTT6=
EXTT7=
EXTT8=
EXTT9=
EXTT10=
EXTT11=
EXTT12=
EXTT13=
EXTT14=
EXTT15=
EXTT16=
EXTT17=
EXTT18=
EXTT19=
EXTT20=
PLAYORDER=
